<!DOCTYPE svg PUBLIC "-//W3C//DTD SVG 1.1//EN" "http://www.w3.org/Graphics/SVG/1.1/DTD/svg11.dtd">
<!-- Uploaded to: SVG Repo, www.svgrepo.com, Transformed by: SVG Repo Mixer Tools -->
<svg height="64px" width="64px" version="1.1" id="Layer_1" xmlns="http://www.w3.org/2000/svg" xmlns:xlink="http://www.w3.org/1999/xlink" viewBox="0 0 281.959 281.959" xml:space="preserve" fill="#5c475c" stroke="#5c475c">
<g id="SVGRepo_bgCarrier" stroke-width="0"/>
<g id="SVGRepo_tracerCarrier" stroke-linecap="round" stroke-linejoin="round"/>
<g id="SVGRepo_iconCarrier"> <g> <g> <g> <g> <g id="XMLID_26_"> <g> <path style="fill:#f1f2f3;" d="M255.814,52.098v95.161c0,19.481-15.636,35.341-34.828,35.341H67.542 c-2.884,0-5.575,1.506-7.081,4.005l-34.316,57.097V52.098c0-19.481,15.636-35.341,34.86-35.341h159.98 C240.178,16.757,255.814,32.618,255.814,52.098z M224.51,103.972c0-4.614-3.717-8.363-8.267-8.363h-48.766l52.387-49.151 c2.499-2.371,3.332-6.024,2.083-9.228s-4.293-5.319-7.69-5.319H142.87c-4.55,0-8.267,3.749-8.267,8.363 c0,4.646,3.717,8.395,8.267,8.395h50.272L140.755,97.82c-2.499,2.339-3.332,6.024-2.083,9.228 c1.218,3.204,4.293,5.319,7.69,5.319h69.881C220.793,112.367,224.51,108.618,224.51,103.972z M126.978,119.512 c2.499-2.339,3.332-5.992,2.083-9.228c-1.25-3.204-4.293-5.319-7.69-5.319H79.045c-4.55,0-8.267,3.749-8.267,8.395 c0,4.614,3.717,8.395,8.267,8.395h21.211L75.52,144.953c-2.499,2.339-3.332,5.992-2.083,9.228 c1.218,3.204,4.293,5.319,7.69,5.319h41.429c4.55,0,8.267-3.749,8.267-8.395s-3.717-8.395-8.267-8.395h-20.314 L126.978,119.512z"/> <path style="fill:#3c3545;" d="M272.347,52.098v95.161c0,28.741-23.037,52.098-51.361,52.098H72.188L24.96,277.922 c-1.538,2.531-4.229,4.037-7.081,4.037c-0.737,0-1.474-0.096-2.243-0.32c-3.557-1.025-6.024-4.326-6.024-8.074V52.098 C9.612,23.358,32.65,0,61.006,0h159.98C249.31,0,272.347,23.358,272.347,52.098z M255.814,147.26V52.098 c0-19.481-15.636-35.341-34.828-35.341H61.006c-19.224,0-34.86,15.86-34.86,35.341v191.604l34.316-57.097 c1.506-2.499,4.197-4.005,7.081-4.005h153.443C240.178,182.601,255.814,166.74,255.814,147.26z"/> <path style="fill:#3c3545;" d="M216.243,95.61c4.55,0,8.267,3.749,8.267,8.363c0,4.646-3.717,8.395-8.267,8.395h-69.881 c-3.396,0-6.472-2.115-7.69-5.319c-1.25-3.204-0.417-6.889,2.083-9.228l52.387-49.151H142.87c-4.55,0-8.267-3.749-8.267-8.395 c0-4.614,3.717-8.363,8.267-8.363h71.387c3.396,0,6.44,2.115,7.69,5.319s0.417,6.857-2.083,9.228L167.477,95.61H216.243z"/> <path style="fill:#3c3545;" d="M129.06,110.284c1.25,3.236,0.417,6.889-2.083,9.228l-24.736,23.198h20.314 c4.55,0,8.267,3.749,8.267,8.395s-3.717,8.395-8.267,8.395H81.127c-3.396,0-6.472-2.115-7.69-5.319 c-1.25-3.236-0.417-6.889,2.083-9.228l24.736-23.198H79.045c-4.55,0-8.267-3.781-8.267-8.395c0-4.646,3.717-8.395,8.267-8.395 h42.326C124.767,104.966,127.811,107.08,129.06,110.284z"/> </g> </g> </g> </g> <g> <path style="fill:#decdf4;" d="M255.814,102.873V52.098c0-19.481-15.636-35.341-34.828-35.341H61.006 c-14.412,0-26.809,8.914-32.111,21.586c28.013-2.714,66.28-3.944,105.837,3.223c-0.064-0.423-0.128-0.849-0.128-1.291 c0-4.614,3.717-8.363,8.267-8.363h71.387c3.396,0,6.44,2.115,7.69,5.319s0.417,6.857-2.083,9.228l-17.978,16.866 C221.261,73.008,239.643,85.857,255.814,102.873z"/> <path style="fill:#decdf4;" d="M185.407,55.927l7.735-7.257h-28.478C171.63,50.753,178.554,53.178,185.407,55.927z"/> </g> </g> </g> </g>
</svg>